#!OML:ASF E:\CV Data\Top Level 1\Subject 1\Session 1\player.ASF
:FULLY-SPECIFIED
:DEGREES
811
root 4.72951 18.1397 41.4534 1.9917 -7.69924 -7.38668
lowerback 20.0706 1.10089 3.26667
upperback 7.8352 2.00931 0.561886
thorax -2.65199 1.01539 -1.69101
lowerneck -7.6866 -5.669 -16.6556
upperneck 14.7184 -7.55629 13.4704
head 6.88805 -3.61162 6.51478
rclavicle -4.47266e-014 3.1408e-014
rhumerus -74.2502 14.7276 -107.278
rradius 47.793
rwrist -10.0516
rhand -8.58578 6.10927
rfingers 7.12502
rthumb 17.3451 -23.1368
lclavicle -4.47266e-014 3.1408e-014
lhumerus -67.6685 -6.03935 92.3879
lradius 59.9455
lwrist 11.7055
lhand -20.705 7.24637
lfingers 7.12502
lthumb 5.65922 37.1508
rfemur -37.7598 2.77596 24.7748
rtibia 20.9176
rfoot 27.9792 -6.62474
rtoes 12.2819
lfemur -34.8942 0.914702 -3.21843
ltibia 18.9482
lfoot 27.6032 -2.47302
ltoes -5.19193
812
root 4.71207 17.816 41.7892 1.23556 -7.68049 -7.36624
lowerback 20.315 1.10189 3.19474
upperback 7.94497 2.00163 0.528188
thorax -2.66049 1.01169 -1.68924
lowerneck -7.92801 -5.70156 -16.5479
upperneck 14.9952 -7.59549 13.4273
head 7.0195 -3.62096 6.47859
rclavicle 4.57205e-015 1.59028e-015
rhumerus -75.0577 14.4387 -107.737
rradius 47.9318
rwrist -9.65226
rhand -8.14359 6.42403
rfingers 7.12502
rthumb 17.7707 -22.784
lclavicle 4.57205e-015 1.59028e-015
lhumerus -68.79 -5.99751 92.2167
lradius 60.4775
lwrist 12.098
lhand -20.1728 6.49602
lfingers 7.12502
lthumb 6.17304 36.3861
rfemur -37.9992 2.54465 25.0073
rtibia 22.5393
rfoot 28.7744 -6.12622
rtoes 13.0902
lfemur -35.4552 2.23953 -3.80705
ltibia 20.8044
lfoot 28.1987 -3.69046
ltoes -4.03666
813
root 4.69626 17.4722 42.1226 0.420711 -7.65937 -7.39832
lowerback 20.6442 1.09345 3.17893
upperback 8.03266 1.99746 0.536771
thorax -2.73457 1.00845 -1.67783
lowerneck -8.19101 -5.7347 -16.449
upperneck 15.2218 -7.62533 13.3712
head 7.13755 -3.62603 6.4389
rclavicle 7.15625e-015 -8.74653e-015
rhumerus -75.7206 14.1365 -108.044
rradius 47.9444
rwrist -9.20931
rhand -7.63657 6.67545
rfingers 7.12502
rthumb 18.2585 -22.4876
lclavicle 7.15625e-015 -8.74653e-015
lhumerus -69.7855 -5.95654 92.0494
lradius 60.8224
lwrist 12.08
lhand -19.7579 5.84659
lfingers 7.12502
lthumb 6.57354 35.7246
rfemur -38.4026 2.2165 25.3497
rtibia 24.9768
rfoot 29.236 -5.48459
rtoes 13.5217
lfemur -36.1947 3.63058 -4.40471
ltibia 23.3763
lfoot 28.626 -5.37059
ltoes -2.82214
814
root 4.6821 17.111 42.4545 -0.449824 -7.67232 -7.48854
lowerback 21.0321 1.08653 3.22178
upperback 8.10097 2.01102 0.588587
thorax -2.85705 1.01301 -1.65951
lowerneck -8.46526 -5.76267 -16.3879
upperneck 15.3951 -7.63879 13.3261
head 7.24027 -3.62389 6.41002
rclavicle -2.22639e-014 2.8625e-014
rhumerus -76.2412 13.8211 -108.2
rradius 47.8111
rwrist -8.74541
rhand -7.11167 6.89676
rfingers 7.12502
rthumb 18.7634 -22.2183
lclavicle -2.22639e-014 2.8625e-014
lhumerus -70.6489 -5.922 91.9103
lradius 60.9527
lwrist 11.6243
lhand -19.5184 5.36447
lfingers 7.12502
lthumb 6.80472 35.2351
rfemur -38.9053 1.85468 25.7838
rtibia 28.1448
rfoot 28.6511 -4.55556
rtoes 13.4605
lfemur -37.0481 4.92649 -4.89896
ltibia 26.6086
lfoot 28.5389 -7.34947
ltoes -1.11967
815
root 4.67005 16.7341 42.7847 -1.3745 -7.72185 -7.63575
lowerback 21.4696 1.08118 3.33576
upperback 8.15389 2.04534 0.681162
thorax -3.01809 1.02723 -1.64441
lowerneck -8.72937 -5.78395 -16.375
upperneck 15.4896 -7.63682 13.3137
head 7.31681 -3.61468 6.40099
rclavicle -1.98785e-014 -5.1684e-015
rhumerus -76.5901 13.475 -108.187
rradius 47.5094
rwrist -8.25263
rhand -6.53823 7.06099
rfingers 7.12502
rthumb 19.3149 -21.9998
lclavicle -1.98785e-014 -5.1684e-015
lhumerus -71.3592 -5.90362 91.8106
lradius 60.8408
lwrist 10.7538
lhand -19.4683 5.03938
lfingers 7.12502
lthumb 6.85309 34.9085
rfemur -39.4657 1.52112 26.254
rtibia 31.9758
rfoot 26.6616 -2.92828
rtoes 12.0441
lfemur -37.9568 6.07873 -5.2537
ltibia 30.4633
lfoot 27.3774 -9.61719
ltoes 0.620965
816
root 4.66029 16.3538 43.1075 -2.37879 -7.79709 -7.84236
lowerback 22.0004 1.0675 3.53471
upperback 8.19026 2.09348 0.809019
thorax -3.24008 1.04725 -1.646
lowerneck -8.93337 -5.79039 -16.4044
upperneck 15.4599 -7.61599 13.3524
head 7.34331 -3.59654 6.41773
rclavicle 9.14409e-015 2.78299e-014
rhumerus -76.7443 13.0897 -108.018
rradius 46.994
rwrist -7.72371
rhand -5.95281 7.17776
rfingers 7.12502
rthumb 19.8777 -21.8257
lclavicle 9.14409e-015 2.78299e-014
lhumerus -71.896 -5.88694 91.7297
lradius 60.4571
lwrist 9.5256
lhand -19.5194 4.88555
lfingers 7.12502
lthumb 6.8038 34.7562
rfemur -40.0143 1.29186 26.7154
rtibia 36.4103
rfoot 23.0108 -1.07975
rtoes 9.62354
lfemur -38.836 7.03637 -5.42687
ltibia 34.896
lfoot 24.9252 -11.8235
ltoes 2.53991
817
root 4.65321 15.9717 43.4209 -3.48239 -7.87499 -8.0932
lowerback 22.6617 1.03497 3.8193
upperback 8.21901 2.14539 0.959602
thorax -3.53126 1.06778 -1.67665
lowerneck -9.06135 -5.78664 -16.4553
upperneck 15.2931 -7.58631 13.4379
head 7.31319 -3.57379 6.45387
rclavicle 6.36111e-015 2.10712e-014
rhumerus -76.6297 12.6556 -107.691
rradius 46.1997
rwrist -7.16542
rhand -5.39915 7.25615
rfingers 7.12502
rthumb 20.4099 -21.6912
lclavicle 6.36111e-015 2.10712e-014
lhumerus -72.1971 -5.8598 91.6238
lradius 59.7664
lwrist 8.02824
lhand -19.5943 4.81401
lfingers 7.12502
lthumb 6.73143 34.687
rfemur -40.5205 1.20167 27.1208
rtibia 41.3606
rfoot 17.754 0.616643
rtoes 6.55049
lfemur -39.6503 7.78527 -5.42333
ltibia 39.84
lfoot 21 -13.3952
ltoes 4.61007
818
root 4.64751 15.591 43.7246 -4.58681 -7.92741 -8.30224
lowerback 23.3735 0.999861 4.09647
upperback 8.22073 2.201 1.10573
thorax -3.87503 1.08788 -1.71086
lowerneck -9.13765 -5.79025 -16.487
upperneck 15.0245 -7.56943 13.5252
head 7.24256 -3.55711 6.48463
rclavicle -1.76918e-014 1.43125e-014
rhumerus -76.158 12.1737 -107.221
rradius 45.0533
rwrist -6.62215
rhand -4.92689 7.29052
rfingers 7.12502
rthumb 20.8637 -21.6076
lclavicle -1.76918e-014 1.43125e-014
lhumerus -72.177 -5.82246 91.4474
lradius 58.7056
lwrist 6.37116
lhand -19.5578 4.78281
lfingers 7.12502
lthumb 6.7667 34.6547
rfemur -41.1035 1.26596 27.3729
rtibia 46.675
rfoot 11.5875 1.67636
rtoes 3.41194
lfemur -40.5158 8.33303 -5.34663
ltibia 45.1723
lfoot 16.0016 -13.9795
ltoes 6.66313
819
root 4.64179 15.2164 44.0199 -5.52748 -7.93644 -8.44485
lowerback 23.9791 0.97368 4.30948
upperback 8.17963 2.25507 1.23737
thorax -4.21357 1.10585 -1.72183
lowerneck -9.22475 -5.81183 -16.472
upperneck 14.7214 -7.57439 13.5811
head 7.16349 -3.54995 6.49299
rclavicle 8.94531e-015 -5.96354e-015
rhumerus -75.2237 11.6991 -106.637
rradius 43.4804
rwrist -6.154
rhand -4.62211 7.28981
rfingers 7.12502
rthumb 21.1565 -21.5758
lclavicle 8.94531e-015 -5.96354e-015
lhumerus -71.7178 -5.73882 91.1409
lradius 57.198
lwrist 4.66926
lhand -19.3908 4.68971
lfingers 7.12502
lthumb 6.92789 34.5564
rfemur -41.9303 1.48399 27.4708
rtibia 52.151
rfoot 5.33048 1.85394
rtoes 0.792041
lfemur -41.5943 8.70657 -5.25726
ltibia 50.6988
lfoot 10.677 -13.4478
ltoes 8.71194
820
root 4.63467 14.8568 44.3058 -6.20485 -7.91549 -8.49844
lowerback 24.3972 0.977186 4.40774
upperback 8.08618 2.31568 1.34269
thorax -4.51982 1.12637 -1.69375
lowerneck -9.39703 -5.86178 -16.3759
upperneck 14.4735 -7.61093 13.5683
head 7.11671 -3.55569 6.45976
rclavicle 5.76476e-015 1.59028e-015
rhumerus -73.7479 11.2573 -105.933
rradius 41.4412
rwrist -5.75248
rhand -4.51145 7.25063
rfingers 7.12502
rthumb 21.2628 -21.6031
lclavicle 5.76476e-015 1.59028e-015
lhumerus -70.7402 -5.57459 90.6514
lradius 55.1891
lwrist 3.02531
lhand -19.1579 4.49399
lfingers 7.12502
lthumb 7.15269 34.3531
rfemur -43.0483 1.819 27.4434
rtibia 57.5266
rfoot -0.325295 1.22967
rtoes -0.738042
lfemur -42.9242 8.9761 -5.21873
ltibia 56.1554
lfoot 5.66825 -12.0902
ltoes 10.681
821
root 4.62667 14.5215 44.5803 -6.56447 -7.86406 -8.48982
lowerback 24.5942 1.00086 4.40673
upperback 7.93691 2.36982 1.42325
thorax -4.78217 1.14405 -1.62934
lowerneck -9.67698 -5.93721 -16.1963
upperneck 14.3226 -7.67392 13.4727
head 7.11771 -3.57228 6.38066
rclavicle 5.48646e-014 1.51076e-014
rhumerus -71.7012 10.8505 -105.04
rradius 38.97
rwrist -5.25635
rhand -4.5216 7.13968
rfingers 7.12502
rthumb 21.253 -21.7151
lclavicle 5.48646e-014 1.51076e-014
lhumerus -69.2219 -5.26315 89.9422
lradius 52.6802
lwrist 1.51757
lhand -18.9767 4.23532
lfingers 7.12502
lthumb 7.32766 34.0884
rfemur -44.4513 2.22502 27.3435
rtibia 62.5507
rfoot -4.87043 0.176652
rtoes -1.6067
lfemur -44.4963 9.17533 -5.23974
ltibia 61.283
lfoot 1.47041 -10.4824
ltoes 12.3475
822
root 4.61852 14.2294 44.8389 -6.65922 -7.80197 -8.44442
lowerback 24.6181 1.03279 4.32393
upperback 7.74771 2.40731 1.48968
thorax -5.00736 1.15426 -1.52515
lowerneck -10.0349 -6.0198 -15.9665
upperneck 14.2682 -7.74305 13.3226
head 7.15981 -3.59089 6.27399
rclavicle -6.95746e-015 7.55382e-015
rhumerus -69.1422 10.4523 -103.869
rradius 36.172
rwrist -4.45168
rhand -4.65974 6.97423
rfingers 7.12502
rthumb 21.1203 -21.8954
lclavicle -6.95746e-015 7.55382e-015
lhumerus -67.2212 -4.71107 89.0021
lradius 49.7423
lwrist 0.175597
lhand -19.0193 3.97762
lfingers 7.12502
lthumb 7.28653 33.8322
rfemur -45.9162 2.64674 27.2385
rtibia 67.0045
rfoot -8.57675 -1.12211
rtoes -1.89386
lfemur -46.1276 9.32562 -5.30746
ltibia 65.8629
lfoot -1.77774 -8.99162
ltoes 14.1239
823
root 4.61162 13.98 45.08 -6.59232 -7.73081 -8.40209
lowerback 24.5909 1.05065 4.20975
upperback 7.52937 2.4174 1.55028
thorax -5.24204 1.15102 -1.40095
lowerneck -10.4203 -6.09019 -15.7134
upperneck 14.2872 -7.80043 13.1581
head 7.22641 -3.60324 6.16073
rclavicle 2.34566e-014 2.38542e-015
rhumerus -66.1747 9.92546 -102.271
rradius 33.2411
rwrist -2.99514
rhand -4.84647 6.75603
rfingers 7.12502
rthumb 20.9409 -22.1336
lclavicle 2.34566e-014 2.38542e-015
lhumerus -64.8991 -3.87619 87.86
lradius 46.5851
lwrist -1.00798
lhand -19.362 3.92333
lfingers 7.12502
lthumb 6.95575 33.789
rfemur -47.2531 3.02847 27.1742
rtibia 70.8064
rfoot -11.636 -2.4456
rtoes -2.3268
lfemur -47.6374 9.4501 -5.38179
ltibia 69.7967
lfoot -4.37681 -7.73571
ltoes 15.5798
824
root 4.60709 13.7719 45.3016 -6.48178 -7.64018 -8.3793
lowerback 24.6334 1.03504 4.08457
upperback 7.30147 2.386 1.61703
thorax -5.52475 1.12675 -1.2541
lowerneck -10.761 -6.13414 -15.4676
upperneck 14.3025 -7.83235 13.0187
head 7.28086 -3.60373 6.06131
rclavicle 3.04141e-014 -1.59028e-015
rhumerus -62.9476 9.08648 -100.111
rradius 30.4271
rwrist -0.575964
rhand -5.18149 6.57375
rfingers 7.12502
rthumb 20.619 -22.3511
lclavicle 3.04141e-014 -1.59028e-015
lhumerus -62.432 -2.75338 86.6009
lradius 43.4467
lwrist -2.02772
lhand -20.0598 4.19565
lfingers 7.12502
lthumb 6.28212 34.0825
rfemur -48.3316 3.34157 27.1543
rtibia 73.9899
rfoot -14.0769 -3.74362
rtoes -3.03499
lfemur -48.9039 9.54521 -5.42668
ltibia 73.1188
lfoot -6.35065 -6.80107
ltoes 16.7806
